<svg width="504" height="504" viewBox="0 0 504 504" fill="none" xmlns="http://www.w3.org/2000/svg">
<g clip-path="url(#clip0_104_2)">
<path d="M491.613 75.643L427.378 11.408C412.176 -3.79401 387.524 -3.79401 372.322 11.408L251.507 132.222L130.686 11.407C115.484 -3.79501 90.833 -3.79501 75.631 11.407L11.401 75.643C-3.80099 90.845 -3.80099 115.497 11.401 130.699L132.222 251.514L11.401 372.328C-3.80099 387.53 -3.80099 412.182 11.401 427.384L75.636 491.613C90.838 506.815 115.49 506.815 130.692 491.613L251.507 370.799L372.329 491.613C387.531 506.815 412.183 506.815 427.385 491.613L491.62 427.384C506.822 412.182 506.822 387.53 491.62 372.328L370.793 251.514L491.613 130.699C506.815 115.49 506.815 90.845 491.613 75.643Z" fill="#FF2222"/>
</g>
<defs>
<clipPath id="clip0_104_2">
<rect width="503.021" height="503.021" fill="white"/>
</clipPath>
</defs>
</svg>
