<?xml version="1.0" encoding="utf-8"?>
<!-- Generator: Adobe Illustrator 23.0.5, SVG Export Plug-In . SVG Version: 6.00 Build 0)  -->
<svg version="1.1" id="Layer_1" xmlns="http://www.w3.org/2000/svg" xmlns:xlink="http://www.w3.org/1999/xlink" x="0px" y="0px"
	 viewBox="0 0 1080 1080" style="enable-background:new 0 0 1080 1080;" xml:space="preserve">
<style type="text/css">
	.st0{fill:#FFFFFF;filter:url(#Adobe_OpacityMaskFilter);}
	.st1{mask:url(#path-1-inside-1_1_);fill:#30AFFE;}
	.st2{fill:#30AFFE;}
</style>
<g>
	<g>
		<defs>
			<filter id="Adobe_OpacityMaskFilter" filterUnits="userSpaceOnUse" x="396.4" y="174" width="670.2" height="769.1">
				<feColorMatrix  type="matrix" values="1 0 0 0 0  0 1 0 0 0  0 0 1 0 0  0 0 0 1 0"/>
			</filter>
		</defs>
		<mask maskUnits="userSpaceOnUse" x="396.4" y="174" width="670.2" height="769.1" id="path-1-inside-1_1_">
			<path class="st0" d="M647.2,753.1c-33.6,0-60.8-27.2-60.8-60.8V424.8c0-33.6,27.2-60.8,60.8-60.8h54.1c34.4,0,64.8,7.7,91.4,23
				c26.7,15.3,47.4,37.1,62,65.2c14.6,28.1,21.9,60.4,21.9,96.7v19.5c0,36.9-7.4,69.3-22.2,97.3c-14.6,28-35.5,49.5-62.8,64.7
				c-27.1,15.1-58.2,22.7-93.3,22.7H647.2z M701.3,418.5c-26.1,0-47.3,21.2-47.3,47.3V655c0,24.4,19.7,44.1,44.1,44.1
				c35.5,0,62.6-11,81.5-33.1c19.1-22.3,28.8-54.2,29.1-95.7v-21.6c0-42.2-9.2-74.5-27.5-96.7C762.9,429.7,736.2,418.5,701.3,418.5z
				"/>
		</mask>
		<path class="st1" d="M792.7,387l-95,164.6l0.2,0.1l0.2,0.1L792.7,387z M854.4,665.7l-168-88.8l-0.2,0.4l-0.2,0.4L854.4,665.7z
			 M791.6,730.3l-92.3-166.1l-0.2,0.1l-0.2,0.1L791.6,730.3z M779.6,666L635.3,542.4l0,0l0,0L779.6,666z M808.7,570.3l190,1.6l0-0.8
			v-0.8H808.7z M776.4,692.3V424.8h-380v267.4H776.4z M647.2,554h54.1V174h-54.1V554z M701.3,554c3,0,3.6,0.3,2.3,0
			c-0.6-0.2-1.5-0.4-2.6-0.9c-1.1-0.4-2.2-1-3.3-1.6l190-329.1C828.9,188.5,764.9,174,701.3,174V554z M698.2,551.8
			c-2.2-1.2-5-3.3-7.7-6.1c-2.7-2.8-4-5.1-4.5-6l337.3-175.1c-30.9-59.5-76.8-108.5-136.1-142.5L698.2,551.8z M686,539.7
			c-0.5-0.9-0.4-1.2-0.2-0.3c0.2,1.1,0.8,4,0.8,9.5h380c0-62.3-12.7-125.4-43.3-184.3L686,539.7z M686.6,548.9v19.5h380v-19.5H686.6
			z M686.6,568.4c0,5.7-0.6,8.8-0.8,9.7c-0.2,0.8-0.1,0.2,0.6-1.3l336,177.6c31.5-59.5,44.2-123.4,44.2-186.1H686.6z M686,577.7
			c0.8-1.5,2.5-4.2,5.5-7.3c3-3.1,5.9-5.1,7.9-6.2l184.6,332.2c60.1-33.4,107.4-82.3,138.9-142.8L686,577.7z M698.9,564.5
			c0.9-0.5,1.8-0.9,2.6-1.2c0.8-0.3,1.4-0.5,1.6-0.5c0.2-0.1,0,0-0.7,0.1c-0.7,0.1-2,0.2-4,0.2v380c63.2,0,127-13.9,186-46.9
			L698.9,564.5z M698.4,563.1h-51.2v380h51.2V563.1z M464,465.8V655h380V465.8H464z M698.1,889.1c77.7,0,163.1-26.2,225.9-99.7
			L635.2,542.5c10.5-12.3,24-21.9,38.3-27.7c13.4-5.4,22.8-5.7,24.6-5.7V889.1z M924,789.5c58.2-68,74.2-149.7,74.8-217.6l-380-3.3
			c-0.1,6.8-0.9,6.5,0.7,1.3c1.7-5.7,6.1-16.3,15.8-27.6L924,789.5z M998.7,570.3v-21.6h-380v21.6H998.7z M998.7,548.7
			c0-66.5-14.1-148.6-70.9-217.6L634.6,572.8c-10-12.1-14-22.9-15.5-28c-1.3-4.5-0.4-4-0.4,3.8H998.7z M927.9,331.1
			c-62-75.3-148-102.6-226.5-102.6v380c-2.6,0-12.9-0.4-27.1-6.4c-15.2-6.4-29.1-16.7-39.6-29.4L927.9,331.1z M464,655
			c0,129.3,104.8,234.1,234.1,234.1v-380c80.6,0,145.9,65.3,145.9,145.9H464z M776.4,424.8c0,71.4-57.9,129.2-129.2,129.2V174
			c-138.5,0-250.8,112.3-250.8,250.8H776.4z M844,465.8c0,78.8-63.9,142.7-142.7,142.7v-380C570.3,228.5,464,334.8,464,465.8H844z
			 M396.4,692.3c0,138.5,112.3,250.8,250.8,250.8v-380c71.4,0,129.2,57.8,129.2,129.2H396.4z"/>
	</g>
	<g>
		<path class="st2" d="M113.6,366.4c21.6,0,40.9,13.4,48.5,33.6l99.6,264.6l98.5-262.4c8.1-21.6,28.7-35.8,51.7-35.8
			c27.1,0,49.1,22,49.1,49.1v305.2c0,19.2-15.6,34.8-34.8,34.8c-18,0-32.6-14.6-32.6-32.6v-95.7l6.7-171.5L294.1,732.9
			c-5.2,13.6-18.3,22.6-32.8,22.6c-14.6,0-27.6-9-32.8-22.6l-106-276.9l6.7,171.3v94.6c0,18.6-15.1,33.7-33.7,33.7
			s-33.7-15.1-33.7-33.7V418.2C61.8,389.6,85,366.4,113.6,366.4z"/>
	</g>
</g>
</svg>
